<?xml version="1.0" encoding="UTF-8"?>
<svg version="1.1" xmlns="http://www.w3.org/2000/svg" width="410" height="287">
<path d="M0 0 C135.3 0 270.6 0 410 0 C410 94.71 410 189.42 410 287 C274.7 287 139.4 287 0 287 C0 192.29 0 97.58 0 0 Z " fill="#FEFEFE" transform="translate(0,0)"/>
<path d="M0 0 C1.66192383 -0.04350586 1.66192383 -0.04350586 3.35742188 -0.08789062 C12.38686341 -0.15649538 20.50595832 1.40854773 28.3125 6.125 C34.55359172 12.95119406 34.86969295 18.46542522 34.625 27.4375 C34.61533203 28.50871094 34.60566406 29.57992187 34.59570312 30.68359375 C34.52841436 35.38210465 34.27695526 39.70990777 33.3125 44.3125 C32.87040001 50.40365537 33.73146364 54.01147198 36.8125 59.3125 C40.63048989 66.35430077 43.31837209 73.58289948 45.8125 81.1875 C46.3374707 82.78464844 46.3374707 82.78464844 46.87304688 84.4140625 C49.3125 91.99256476 49.3125 91.99256476 49.3125 94.3125 C55.70893403 93.2326949 62.10467948 92.1488802 68.5 91.0625 C69.43855835 90.90321014 70.3771167 90.74392029 71.34411621 90.57980347 C82.74949734 88.64150669 94.14902602 86.69667946 105.48510742 84.37988281 C109.1685276 83.6413071 112.5626443 83.24763894 116.3125 83.3125 C117.01331038 79.40340675 117.70669036 75.49306844 118.39379883 71.58154297 C118.74121558 69.61229246 119.09416929 67.64402132 119.44726562 65.67578125 C121.71290041 52.73867829 122.47685763 40.25076986 122.4375 27.125 C122.44136719 25.82369141 122.44523437 24.52238281 122.44921875 23.18164062 C122.44241146 16.47305187 122.2279122 9.96013619 121.3125 3.3125 C129.96802706 0.36891995 138.3677982 -0.01627187 147.4375 -0.0625 C148.53304199 -0.07603516 149.62858398 -0.08957031 150.75732422 -0.10351562 C160.24877746 -0.05218735 169.79080859 1.04442383 177.3125 7.3125 C184.16950321 14.41239433 183.78825142 21.52571377 183.67578125 30.890625 C183.26393863 41.98759301 182.33296463 57.27157074 177.3125 67.3125 C177.11377569 69.29057118 176.92916966 71.27006183 176.75 73.25 C175.85980856 81.11069044 173.6913365 88.55961359 171.4375 96.125 C171.09775146 97.2689624 170.75800293 98.4129248 170.40795898 99.59155273 C165.45302611 115.85822328 165.45302611 115.85822328 161.86376953 121.65039062 C160.04213592 124.77646756 158.79684854 128.00860791 157.5625 131.39453125 C157.03727096 132.80402495 156.51161897 134.2133611 155.9855957 135.62255859 C155.71300934 136.35722351 155.44042297 137.09188843 155.15957642 137.84881592 C149.52237694 152.99656819 143.34835428 167.75381665 136.3125 182.3125 C135.89935547 183.18503418 135.48621094 184.05756836 135.06054688 184.95654297 C124.24994584 207.78130243 111.15546529 234.56469972 86.3125 244.3125 C78.65125787 247.01646781 72.29881056 247.49530595 64.1875 247.5 C63.09695313 247.51224609 62.00640625 247.52449219 60.8828125 247.53710938 C54.11526082 247.54925211 47.88458985 246.94488652 41.3125 245.3125 C40.3740722 241.10437302 39.43693595 236.89595936 38.5 232.6875 C38.23896484 231.51703125 37.97792969 230.3465625 37.70898438 229.140625 C35.86923439 220.87310656 34.07890309 212.59596782 32.3125 204.3125 C28.65817845 187.19024454 24.89116068 170.13064083 20.53417969 153.17138672 C20.25735352 152.09131348 19.98052734 151.01124023 19.6953125 149.8984375 C19.45184082 148.9604834 19.20836914 148.0225293 18.95751953 147.05615234 C18.27569954 144.15596574 17.77164125 141.25544906 17.3125 138.3125 C12.92599211 138.61252375 9.26509529 139.34342314 5.3125 141.3125 C2.60077855 144.99964653 1.08505086 148.9595758 -0.40484619 153.24453735 C-1.38935069 156.07159804 -2.47839816 158.85462322 -3.56207275 161.64485168 C-4.11886459 163.08162488 -4.67039202 164.52044888 -5.21673584 165.96122742 C-12.05698498 183.93906938 -20.94433399 201.35481482 -31.6875 217.3125 C-32.2745874 218.18696777 -32.2745874 218.18696777 -32.87353516 219.07910156 C-40.84872758 230.76155216 -49.67070721 238.69705191 -62.6875 244.3125 C-63.50605469 244.67472656 -64.32460937 245.03695312 -65.16796875 245.41015625 C-71.93107163 247.83229077 -78.97903294 247.49587211 -86.0625 247.5 C-87.70992187 247.51836914 -87.70992187 247.51836914 -89.390625 247.53710938 C-92.49893731 247.54269986 -95.58315949 247.46483779 -98.6875 247.3125 C-99.5012207 247.27721191 -100.31494141 247.24192383 -101.15332031 247.20556641 C-103.2890625 246.92578125 -103.2890625 246.92578125 -106.6875 245.3125 C-108.45620957 242.16031116 -109.00417827 238.83591261 -109.6875 235.3125 C-110.23502209 232.97219752 -110.78463639 230.63238389 -111.3359375 228.29296875 C-111.76533894 226.36534844 -112.19464787 224.43770375 -112.6194458 222.50906372 C-113.37803924 219.06916276 -114.15127171 215.63253891 -114.921875 212.1953125 C-115.15005417 211.17531914 -115.15005417 211.17531914 -115.38284302 210.13471985 C-119.36775815 192.32255622 -123.46876003 174.93414465 -130.45019531 158.02807617 C-132.35394136 153.3393339 -133.93996807 148.60206373 -135.375 143.75 C-135.66020508 142.79685913 -135.66020508 142.79685913 -135.95117188 141.82446289 C-137.19518656 137.48937512 -138.13142758 133.1373837 -139.015625 128.71484375 C-140.63401444 121.05064667 -143.0727923 113.78681073 -145.75 106.4375 C-145.99082306 105.76885925 -146.23164612 105.10021851 -146.47976685 104.41131592 C-155.80280582 78.53989233 -166.21032446 52.41916613 -180.9453125 29.10546875 C-182.33612632 26.87580086 -183.57197995 24.68729269 -184.6875 22.3125 C-172.54677581 12.10912541 -159.10636795 1.719768 -142.50390625 2.05859375 C-136.08406211 2.63735917 -130.18789983 4.56883532 -125.6875 9.3125 C-109.22949198 31.38335469 -103.40782159 62.98157844 -97.41552734 89.20263672 C-95.88151972 95.75534935 -94.19135007 102.27082576 -92.51489258 108.78833008 C-92.27536865 109.73216553 -92.03584473 110.67600098 -91.7890625 111.6484375 C-91.46929443 112.89439697 -91.46929443 112.89439697 -91.14306641 114.16552734 C-90.6875 116.3125 -90.6875 116.3125 -90.6875 119.3125 C-85.03125589 118.35408724 -79.37534673 117.3937285 -73.71972656 116.43164062 C-71.79956791 116.1052717 -69.87932205 115.77941544 -67.95898438 115.45410156 C-65.18335716 114.98380298 -62.40805894 114.51160219 -59.6328125 114.0390625 C-58.7876004 113.89626862 -57.94238831 113.75347473 -57.07156372 113.60635376 C-51.25443219 112.61334177 -45.46845587 111.4977193 -39.6875 110.3125 C-35.59692478 96.7508865 -32.15682491 83.26108974 -29.6875 69.3125 C-29.47768242 68.12888382 -29.47768242 68.12888382 -29.2636261 66.9213562 C-26.81969162 52.71103962 -26.31387262 38.89502117 -26.5 24.5 C-26.51510461 22.42774432 -26.5287826 20.35547774 -26.54101562 18.28320312 C-26.5734935 13.29269039 -26.62494176 8.30272252 -26.6875 3.3125 C-17.68202343 0.68959089 -9.33630029 0.08007119 0 0 Z " fill="#C254AD" transform="translate(199.6875,15.6875)"/>
<path d="M0 0 C1.09554199 -0.01353516 2.19108398 -0.02707031 3.31982422 -0.04101562 C12.81127746 0.01031265 22.35330859 1.10692383 29.875 7.375 C36.73200321 14.47489433 36.35075142 21.58821377 36.23828125 30.953125 C35.82643863 42.05009301 34.89546463 57.33407074 29.875 67.375 C29.67627569 69.35307118 29.49166966 71.33256183 29.3125 73.3125 C28.42230856 81.17319044 26.2538365 88.62211359 24 96.1875 C23.4903772 97.9034436 23.4903772 97.9034436 22.97045898 99.65405273 C18.01552611 115.92072328 18.01552611 115.92072328 14.42626953 121.71289062 C12.60463592 124.83896756 11.35934854 128.07110791 10.125 131.45703125 C9.59977096 132.86652495 9.07411897 134.2758611 8.5480957 135.68505859 C8.27550934 136.41972351 8.00292297 137.15438843 7.72207642 137.91131592 C2.08487694 153.05906819 -4.08914572 167.81631665 -11.125 182.375 C-11.53814453 183.24753418 -11.95128906 184.12006836 -12.37695312 185.01904297 C-23.18755416 207.84380243 -36.28203471 234.62719972 -61.125 244.375 C-68.78624213 247.07896781 -75.13868944 247.55780595 -83.25 247.5625 C-84.34054687 247.57474609 -85.43109375 247.58699219 -86.5546875 247.59960938 C-93.32223918 247.61175211 -99.55291015 247.00738652 -106.125 245.375 C-107.0634278 241.16687302 -108.00056405 236.95845936 -108.9375 232.75 C-109.32905273 230.99429688 -109.32905273 230.99429688 -109.72851562 229.203125 C-111.56826561 220.93560656 -113.35859691 212.65846782 -115.125 204.375 C-118.77932155 187.25274454 -122.54633932 170.19314083 -126.90332031 153.23388672 C-127.18014648 152.15381348 -127.45697266 151.07374023 -127.7421875 149.9609375 C-127.98565918 149.0229834 -128.22913086 148.0850293 -128.47998047 147.11865234 C-129.16386616 144.20967907 -129.74146451 141.33926522 -130.125 138.375 C-128.10703369 136.35703369 -124.38092101 136.43671034 -121.6171875 135.96484375 C-120.85834259 135.83308243 -120.09949768 135.70132111 -119.31765747 135.56556702 C-117.70561452 135.28702027 -116.09320488 135.01058885 -114.48046875 134.73608398 C-112.02993773 134.3176124 -109.58138551 133.88874502 -107.1328125 133.45898438 C-105.56521397 133.18946473 -103.99750867 132.92056526 -102.4296875 132.65234375 C-101.70337128 132.52423813 -100.97705505 132.39613251 -100.22872925 132.2641449 C-95.79546542 131.52059136 -91.62051312 131.25460419 -87.125 131.375 C-85.38892091 139.15813656 -83.65824315 146.94245806 -81.93310547 154.72802734 C-81.42751878 157.0097355 -80.92141779 159.29132982 -80.41455078 161.57275391 C-77.40674012 175.1312441 -74.64784203 188.71782725 -72.125 202.375 C-59.02835399 176.92079635 -49.84591742 149.58603637 -41.125 122.375 C-40.465 122.375 -39.805 122.375 -39.125 122.375 C-39.05023438 121.70339844 -38.97546875 121.03179687 -38.8984375 120.33984375 C-37.90719826 112.80836912 -36.19554576 105.6915952 -34.1875 98.375 C-31.40557393 88.1553204 -29.72013136 78.03076602 -28.41308594 67.53369141 C-28.04446399 64.77152591 -27.5396492 62.04594054 -27 59.3125 C-24.9864922 48.69490219 -24.96770012 37.95950834 -25 27.1875 C-24.99613281 25.88619141 -24.99226563 24.58488281 -24.98828125 23.24414062 C-24.99508854 16.53555187 -25.2095878 10.02263619 -26.125 3.375 C-17.46947294 0.43141995 -9.0697018 0.04622813 0 0 Z " fill="#010101" transform="translate(347.125,15.625)"/>
<path d="M0 0 C17.02746304 9.89968782 23.21872054 44.90686828 28 62 C29.91561772 69.28019449 31.60489796 76.60899576 33.28076172 83.94726562 C34.02041636 87.08665516 34.81506174 90.20718735 35.62890625 93.328125 C38.19496267 103.1725898 40.40488201 112.66079022 41.4453125 122.7890625 C42.08318377 128.23922845 43.27444837 133.57947371 44.4375 138.9375 C44.64318604 139.8972876 44.84887207 140.8570752 45.06079102 141.84594727 C46.0107439 146.12650719 47.04432564 150.28791372 48.5 154.42578125 C50.40505902 159.91863018 51.46396768 165.55031229 52.5625 171.25 C52.77865967 172.35013428 52.99481934 173.45026855 53.2175293 174.58374023 C54.66467911 182.03086456 55.99810641 189.47832128 57 197 C63.36757769 185.08587899 68.47488142 172.76051043 73.484375 160.22265625 C73.92587891 159.16062988 74.36738281 158.09860352 74.82226562 157.00439453 C76.03185826 154.08409895 76.03185826 154.08409895 76.72460938 151.28857422 C77.51620737 148.66176345 78.15390864 147.03900949 80 145 C83.89201169 143.43918615 87.79182364 142.83373998 91.93731689 142.2880249 C94.76924497 141.89258568 97.5662361 141.34943128 100.37387085 140.81082153 C103.31072601 140.25121543 106.25404955 139.73098042 109.19799805 139.21020508 C111.46062095 138.80839403 113.72147129 138.39743218 115.98242188 137.98632812 C117.44521324 137.72600415 118.90810057 137.46621868 120.37109375 137.20703125 C121.66974365 136.9747583 122.96839355 136.74248535 124.30639648 136.50317383 C127.92289207 136.01050429 131.35540226 135.90905429 135 136 C133.03983179 143.11649162 130.5484094 149.81646865 127.5625 156.5625 C127.12929443 157.54629639 126.69608887 158.53009277 126.24975586 159.54370117 C96.4210067 226.73916967 96.4210067 226.73916967 68 239 C67.18144531 239.36222656 66.36289063 239.72445312 65.51953125 240.09765625 C58.75642837 242.51979077 51.70846706 242.18337211 44.625 242.1875 C42.97757813 242.20586914 42.97757813 242.20586914 41.296875 242.22460938 C38.18856269 242.23019986 35.10434051 242.15233779 32 242 C31.1862793 241.96471191 30.37255859 241.92942383 29.53417969 241.89306641 C27.3984375 241.61328125 27.3984375 241.61328125 24 240 C22.23129043 236.84781116 21.68332173 233.52341261 21 230 C20.45247791 227.65969752 19.90286361 225.31988389 19.3515625 222.98046875 C18.92216106 221.05284844 18.49285213 219.12520375 18.0680542 217.19656372 C17.30946076 213.75666276 16.53622829 210.32003891 15.765625 206.8828125 C15.53744583 205.86281914 15.53744583 205.86281914 15.30465698 204.82221985 C11.31974185 187.01005622 7.21873997 169.62164465 0.23730469 152.71557617 C-1.66644136 148.0268339 -3.25246807 143.28956373 -4.6875 138.4375 C-4.97270508 137.48435913 -4.97270508 137.48435913 -5.26367188 136.51196289 C-6.50768656 132.17687512 -7.44392758 127.8248837 -8.328125 123.40234375 C-9.94651444 115.73814667 -12.3852923 108.47431073 -15.0625 101.125 C-15.30332306 100.45635925 -15.54414612 99.78771851 -15.79226685 99.09881592 C-25.11530582 73.22739233 -35.52282446 47.10666613 -50.2578125 23.79296875 C-51.64862632 21.56330086 -52.88447995 19.37479269 -54 17 C-38.94425824 4.34677022 -20.22840751 -9.39615683 0 0 Z " fill="#010101" transform="translate(69,21)"/>
<path d="M0 0 C1.10794922 -0.02900391 2.21589844 -0.05800781 3.35742188 -0.08789062 C12.38686341 -0.15649538 20.50595832 1.40854773 28.3125 6.125 C34.55359172 12.95119406 34.86969295 18.46542522 34.625 27.4375 C34.61533203 28.50871094 34.60566406 29.57992187 34.59570312 30.68359375 C34.52841436 35.38210465 34.27695526 39.70990777 33.3125 44.3125 C32.87038661 50.40384001 33.73173861 54.01123587 36.8125 59.3125 C40.61669783 66.33663024 43.31573977 73.54409279 45.8125 81.125 C46.16248047 82.18138672 46.51246094 83.23777344 46.87304688 84.32617188 C49.3125 91.88013236 49.3125 91.88013236 49.3125 95.3125 C2.22935952 104.04399781 2.22935952 104.04399781 -20.0625 107.875 C-20.79997467 108.00255676 -21.53744934 108.13011353 -22.29727173 108.26153564 C-24.35133391 108.61612262 -26.40597871 108.9670576 -28.4609375 109.31640625 C-29.59966309 109.51049072 -30.73838867 109.7045752 -31.91162109 109.90454102 C-34.6875 110.3125 -34.6875 110.3125 -37.6875 110.3125 C-37.42008865 104.63000886 -36.51565673 99.40377672 -34.9375 93.9375 C-32.81503193 86.34948229 -31.3771915 78.69299813 -30 70.9375 C-29.78569336 69.73689941 -29.57138672 68.53629883 -29.35058594 67.29931641 C-27.60729446 57.3052794 -26.53399227 47.73873813 -26.58984375 37.58984375 C-26.5912587 36.60375626 -26.59267365 35.61766876 -26.59413147 34.60169983 C-26.5996823 31.48443432 -26.6122254 28.36724342 -26.625 25.25 C-26.63002136 23.12304792 -26.63458315 20.9960947 -26.63867188 18.86914062 C-26.64963558 13.68356546 -26.66686575 8.49804533 -26.6875 3.3125 C-17.68202343 0.68959089 -9.33630029 0.08007119 0 0 Z " fill="#010101" transform="translate(199.6875,15.6875)"/>
<path d="M0 0 C2.17176175 3.25764262 2.8111675 5.71172849 3.75 9.5 C5.34865893 15.74872637 7.17423512 21.88909668 9.140625 28.03125 C9.41664551 28.89911133 9.69266602 29.76697266 9.97705078 30.66113281 C10.64954235 32.77467775 11.32388519 34.88761193 12 37 C5.09581118 38.28673466 -1.80939239 39.56791048 -8.71533203 40.84521484 C-11.06485384 41.28045573 -13.4141398 41.71697171 -15.76318359 42.15478516 C-19.13838588 42.78362513 -22.5144079 43.40788456 -25.890625 44.03125 C-26.94179504 44.22811401 -27.99296509 44.42497803 -29.07598877 44.62780762 C-30.05670349 44.80799438 -31.03741821 44.98818115 -32.04785156 45.17382812 C-32.90944885 45.33371216 -33.77104614 45.49359619 -34.65875244 45.6583252 C-37 46 -37 46 -41 46 C-41.82244246 42.06451086 -42.63107889 38.12630061 -43.4375 34.1875 C-43.66759766 33.08728516 -43.89769531 31.98707031 -44.13476562 30.85351562 C-45.53478721 23.97514869 -46.89298164 17.04214521 -47 10 C-44.84994048 7.84994048 -40.57700017 7.90129052 -37.6171875 7.37109375 C-36.76955841 7.21713638 -35.92192932 7.06317902 -35.0486145 6.90455627 C-33.24827221 6.57894354 -31.44754856 6.2554336 -29.64648438 5.93383789 C-26.90615975 5.44308032 -24.16792751 4.94169437 -21.4296875 4.43945312 C-19.67980514 4.12434601 -17.92980845 3.809873 -16.1796875 3.49609375 C-14.95897049 3.27112465 -14.95897049 3.27112465 -13.71359253 3.04161072 C-9.06330502 2.22222498 -4.72193147 1.84911566 0 2 C0 1.34 0 0.68 0 0 Z " fill="#F65863" transform="translate(60,143)"/>
<path d="M0 0 C-7.11534761 27.34525747 -16.33230491 56.72070949 -31 81 C-32.9853305 77.57237136 -33.60932023 74.3350747 -34.26171875 70.4453125 C-34.49241819 69.10843534 -34.72338721 67.77160468 -34.95458984 66.43481445 C-35.07388855 65.73216461 -35.19318726 65.02951477 -35.31610107 64.30557251 C-37.65410848 50.57856815 -40.46305023 37.03670986 -43.81518555 23.52197266 C-44.10047119 22.35585449 -44.38575684 21.18973633 -44.6796875 19.98828125 C-44.93476074 18.97290283 -45.18983398 17.95752441 -45.45263672 16.91137695 C-46.02338049 13.87564126 -46.09684619 11.08159984 -46 8 C-40.84065505 7.02055624 -35.68114547 6.04198592 -30.52148438 5.06420898 C-28.7678586 4.73176424 -27.01427728 4.39908486 -25.26074219 4.06616211 C-22.73384187 3.5864526 -20.20678052 3.10759945 -17.6796875 2.62890625 C-16.90132538 2.48095108 -16.12296326 2.33299591 -15.3210144 2.18055725 C-3.79605168 0 -3.79605168 0 0 0 Z " fill="#FCFCFC" transform="translate(306,138)"/>
<path d="M0 0 C0.66 1.32 1.32 2.64 2 4 C4.34375 3.609375 4.34375 3.609375 6.6875 3.21875 C10.12937799 2.89316695 13.54332402 2.97119437 17 3 C17.72124677 6.8394881 18.43292619 10.6806212 19.13623047 14.5234375 C19.4934578 16.46445259 19.85798981 18.40411876 20.22265625 20.34375 C21.37303136 26.65437916 22.32410266 32.58276724 22 39 C17.92544453 39.71530155 13.8503259 40.42729289 9.7746582 41.13623047 C8.38843185 41.37783501 7.00236234 41.62034128 5.61645508 41.86376953 C3.62362537 42.21363931 1.63017908 42.55999138 -0.36328125 42.90625 C-1.56251221 43.11572266 -2.76174316 43.32519531 -3.99731445 43.54101562 C-7 44 -7 44 -10 44 C-9.81969238 43.34008057 -9.63938477 42.68016113 -9.45361328 42.00024414 C-8.63465122 39.00045942 -7.81736062 36.00022144 -7 33 C-6.73799805 32.04206543 -6.47599609 31.08413086 -6.20605469 30.09716797 C-5.42062467 27.21281206 -4.64694152 24.32549225 -3.875 21.4375 C-3.47861328 19.99213867 -3.47861328 19.99213867 -3.07421875 18.51757812 C-1.43487611 12.34715899 -0.41997375 6.37192536 0 0 Z " fill="#9054F7" transform="translate(376,83)"/>
<path d="M0 0 C-1.38716827 7.99400175 -4.2965397 15.23231531 -7.37548828 22.69165039 C-8.24242439 24.79412778 -9.09663664 26.90143288 -9.94921875 29.00976562 C-13.28763715 37.20390131 -16.89677947 45.15412805 -21 53 C-21.66 52.67 -22.32 52.34 -23 52 C-23.53076172 49.98486328 -23.53076172 49.98486328 -23.9296875 47.3203125 C-24.0834082 46.33708008 -24.23712891 45.35384766 -24.39550781 44.34082031 C-24.55374023 43.27959961 -24.71197266 42.21837891 -24.875 41.125 C-26.25443241 32.31298534 -27.82273811 23.59324029 -29.78076172 14.89111328 C-30.53789629 11.47447682 -31 8.52170815 -31 5 C-26.90694512 4.28578586 -22.81351643 3.57375904 -18.71972656 2.86376953 C-17.32671796 2.62186011 -15.93381353 2.37935006 -14.54101562 2.13623047 C-12.54063474 1.78716116 -10.5398909 1.44024374 -8.5390625 1.09375 C-7.33459473 0.88427734 -6.13012695 0.67480469 -4.88916016 0.45898438 C-2 0 -2 0 0 0 Z " fill="#FBFAFA" transform="translate(148,166)"/>
</svg>
